# xmcd
#
# Track frame offsets:
#  150
#  16776
#  33433
#  47088
#  60345
#  71699
#  85199
#  103221
#  119807
#  133680
#  145718
#  158421
#
# Disc length: 2325 seconds
#
# Revision: 0
# Processed by: cddbd v1.4PL0 Copyright (c) Steve Scherf et al.
# Submitted via: AltoMP3_Maker 3.0
#
DISCID=9d09130c
DTITLE=Escorpion - Arrasando
DYEAR=1900
DGENRE=
TTITLE0=Como Se Mueve El Alacran-crls
TTITLE1=Estoy Llorando-crls
TTITLE2=Aquellos Ojos De Pancha-crls
TTITLE3=La Ambiciosa-crls
TTITLE4=Saladita-crls
TTITLE5=El Pajaro Loco-crls
TTITLE6=Palomita Linda-crls
TTITLE7=A Punto De Llorar-crls
TTITLE8=El Rezao-crls
TTITLE9=Mi Botella Y Yo-crls
TTITLE10=Ahora Se Casa Juana-crls
TTITLE11=The Devil Went Down Ti Texas-crls
EXTD=
EXTT0=
EXTT1=
EXTT2=
EXTT3=
EXTT4=
EXTT5=
EXTT6=
EXTT7=
EXTT8=
EXTT9=
EXTT10=
EXTT11=
PLAYORDER=
